<svg width="56" height="60" viewBox="0 0 56 60" fill="none" xmlns="http://www.w3.org/2000/svg" class="reset">
<path d="M30.4619 0.845079C30.4619 0.479422 30.0579 0.258116 29.7498 0.454982L14.4571 10.2253C14.1722 10.4073 14.1722 10.8235 14.4571 11.0055L29.7498 20.7758C30.0579 20.9727 30.4619 20.7513 30.4619 20.3857L30.4619 0.845079Z" fill="#FE8C00"/>
<path d="M29.7538 13.7832V6.76002C34.8939 7.1747 39.8075 9.13278 43.8375 12.4013C48.4034 16.1045 51.5575 21.2648 52.771 27.0172C53.9845 32.7695 53.1837 38.7642 50.5026 43.9963C47.8216 49.2283 43.4235 53.3796 38.0455 55.7544C32.6675 58.1291 26.6366 58.5829 20.9639 57.0396C15.2911 55.4963 10.3213 52.0497 6.88763 47.2777C3.45394 42.5057 1.76511 36.6984 2.10424 30.8292C2.40355 25.6491 4.26659 20.6987 7.42286 16.6206L12.6133 21.3519C12.6116 21.3548 12.6097 21.3576 12.6077 21.3604C10.5218 24.2346 9.2915 27.6583 9.08498 31.2326C8.83837 35.5006 10.0665 39.7236 12.5634 43.1937C15.0603 46.6639 18.6743 49.1701 22.7995 50.2924C26.9246 51.4147 31.3102 51.0847 35.221 49.3578C39.1318 47.631 42.3301 44.6121 44.2797 40.8075C46.2293 37.0028 46.8117 32.6436 45.9292 28.4605C45.0468 24.2775 42.7532 20.525 39.4328 17.832C36.6522 15.5768 33.2932 14.1795 29.7638 13.7848C29.7604 13.7845 29.7571 13.7839 29.7538 13.7832Z" fill="#FE8C00" stroke="#FE8C00" stroke-width="4.12307" stroke-linecap="round" stroke-linejoin="round"/>
</svg>
