<svg width="347" height="167" viewBox="0 0 347 167" fill="none" xmlns="http://www.w3.org/2000/svg">
<g id="TIMER" class="staggering-axis-grid-timer">
<g class="leaf" id="yellow_leaf">
<path id="Vector 1" d="M62.7229 103.597C54.6595 88.327 51.4229 57.2948 102.984 55.325C110.446 75.1927 102.234 103.315 62.7229 103.597Z" fill="#FDC209"/>
<path id="Vector 2" d="M88.2673 71.4656C93.1936 65.5727 96.1807 63.0224 96.1807 63.0224M88.2673 71.4656C83.667 69.9933 85.1649 62.2454 85.1649 62.2454M88.2673 71.4656C86.7054 73.334 84.7215 75.0713 83.0336 77.1886M83.0336 77.1886C87.6863 79.1579 97.2315 76.6126 97.2315 76.6126M83.0336 77.1886C80.1559 80.7985 79.2279 81.3401 76.466 84.9763M76.466 84.9763C73.5927 83.1364 67.9317 79.644 70.1017 70.5904M76.466 84.9763C75.8747 85.7548 74.0085 88.0129 73.4394 88.7682M63.9162 101.83C65.4798 99.6973 71.4306 91.4341 73.4394 88.7682M73.4394 88.7682C77.6329 91.5854 87.1373 92.0468 90.8554 88.872" stroke="#E39600" stroke-width="3.08496" stroke-linecap="round" stroke-linejoin="round"/>
</g>
<g class="leaf" id="yellow_leaf_2">
<path id="Vector 1_2" d="M87.072 61.0909C79.0086 76.3608 75.772 107.393 127.333 109.363C134.795 89.4951 126.583 61.373 87.072 61.0909Z" fill="#FDC209"/>
<path id="Vector 2_2" d="M112.616 93.2221C117.543 99.1151 120.53 101.665 120.53 101.665M112.616 93.2221C108.016 94.6944 109.514 102.442 109.514 102.442M112.616 93.2221C111.054 91.3537 109.07 89.6165 107.383 87.4992M107.383 87.4992C112.035 85.5298 121.581 88.0751 121.581 88.0751M107.383 87.4992C104.505 83.8892 103.577 83.3477 100.815 79.7115M100.815 79.7115C97.9417 81.5513 92.2807 85.0438 94.4507 94.0973M100.815 79.7115C100.224 78.9329 98.3575 76.6749 97.7884 75.9196M88.2652 62.8578C89.8288 64.9905 95.7796 73.2536 97.7884 75.9196M97.7884 75.9196C101.982 73.1024 111.486 72.6409 115.204 75.8158" stroke="#E39600" stroke-width="3.08496" stroke-linecap="round" stroke-linejoin="round"/>
</g>
<g class="leaf" id="yellow_leaf_3">
<path id="Vector 1_3" d="M129.373 106.033C143.564 96.1941 160.732 70.1416 115.875 44.6415C100.099 58.8378 94.4338 87.5815 129.373 106.033Z" fill="#FDC209"/>
<path id="Vector 2_3" d="M121.502 65.7468C119.844 58.247 118.367 54.6074 118.367 54.6074M121.502 65.7468C126.263 66.5591 128.503 58.9923 128.503 58.9923M121.502 65.7468C122.027 68.1246 122.988 70.5805 123.511 73.2372M123.511 73.2372C118.474 72.8419 111.174 66.1857 111.174 66.1857M123.511 73.2372C124.402 77.767 124.976 78.6752 125.752 83.1749M125.752 83.1749C129.15 82.8655 135.784 82.3734 138.028 73.338M125.752 83.1749C125.919 84.1383 126.535 87.0021 126.692 87.9347M129.128 103.915C128.722 101.302 127.247 91.2263 126.692 87.9347M126.692 87.9347C121.672 88.5035 113.024 84.5348 111.186 80.004" stroke="#E39600" stroke-width="3.08496" stroke-linecap="round" stroke-linejoin="round"/>
</g>
<g class="leaf" id="yellow_leaf_4">
<path id="Vector 1_4" d="M114.373 65.742C128.564 75.5808 145.732 101.633 100.875 127.134C85.0993 112.937 79.4338 84.1935 114.373 65.742Z" fill="#FDC209"/>
<path id="Vector 2_4" d="M106.502 106.028C104.844 113.528 103.367 117.168 103.367 117.168M106.502 106.028C111.263 105.216 113.503 112.783 113.503 112.783M106.502 106.028C107.027 103.65 107.988 101.194 108.511 98.5377M108.511 98.5377C103.474 98.9331 96.1742 105.589 96.1742 105.589M108.511 98.5377C109.402 94.0079 109.976 93.0998 110.752 88.6001M110.752 88.6001C114.15 88.9095 120.784 89.4015 123.028 98.4369M110.752 88.6001C110.919 87.6367 111.535 84.7728 111.692 83.8403M114.128 67.86C113.722 70.4732 112.247 80.5487 111.692 83.8403M111.692 83.8403C106.672 83.2715 98.0237 87.2402 96.1861 91.7709" stroke="#E39600" stroke-width="3.08496" stroke-linecap="round" stroke-linejoin="round"/>
</g>
<g class="leaf" id="yellow_leaf_5">
<path id="Vector 1_5" d="M182.371 101.597C190.435 86.327 193.671 55.2948 142.111 53.325C134.648 73.1927 142.86 101.315 182.371 101.597Z" fill="#FDC209"/>
<path id="Vector 2_5" d="M156.827 69.4656C151.901 63.5727 148.914 61.0224 148.914 61.0224M156.827 69.4656C161.427 67.9933 159.93 60.2454 159.93 60.2454M156.827 69.4656C158.389 71.334 160.373 73.0713 162.061 75.1886M162.061 75.1886C157.408 77.1579 147.863 74.6126 147.863 74.6126M162.061 75.1886C164.939 78.7985 165.867 79.3401 168.628 82.9763M168.628 82.9763C171.502 81.1364 177.163 77.644 174.993 68.5904M168.628 82.9763C169.22 83.7548 171.086 86.0129 171.655 86.7682M181.178 99.83C179.615 97.6973 173.664 89.4341 171.655 86.7682M171.655 86.7682C167.462 89.5854 157.957 90.0468 154.239 86.872" stroke="#E39600" stroke-width="3.08496" stroke-linecap="round" stroke-linejoin="round"/>
</g>
<g class="leaf" id="yellow_leaf_6">
<path id="Vector 1_6" d="M155.371 68.1782C163.435 83.448 166.671 114.48 115.111 116.45C107.648 96.5824 115.86 68.4603 155.371 68.1782Z" fill="#FDC209"/>
<path id="Vector 2_6" d="M129.827 100.309C124.901 106.202 121.914 108.753 121.914 108.753M129.827 100.309C134.427 101.782 132.93 109.53 132.93 109.53M129.827 100.309C131.389 98.441 133.373 96.7037 135.061 94.5865M135.061 94.5865C130.408 92.6171 120.863 95.1624 120.863 95.1624M135.061 94.5865C137.939 90.9765 138.867 90.435 141.628 86.7987M141.628 86.7987C144.502 88.6386 150.163 92.131 147.993 101.185M141.628 86.7987C142.22 86.0202 144.086 83.7622 144.655 83.0069M154.178 69.945C152.615 72.0778 146.664 80.3409 144.655 83.0069M144.655 83.0069C140.462 80.1896 130.957 79.7282 127.239 82.9031" stroke="#E39600" stroke-width="3.08496" stroke-linecap="round" stroke-linejoin="round"/>
</g>
<g class="leaf" id="yellow_leaf_7">
<path id="Vector 1_7" d="M174.583 104.355C191.616 107.193 222.086 100.481 207.7 50.929C186.492 50.1106 162.393 66.7702 174.583 104.355Z" fill="#FDC209"/>
<path id="Vector 2_7" d="M197.021 69.9834C201.061 63.4505 202.539 59.8117 202.539 59.8117M197.021 69.9834C199.869 73.8849 206.75 70.0207 206.75 70.0207M197.021 69.9834C195.741 72.0547 194.718 74.4851 193.24 76.7544M193.24 76.7544C189.905 72.9599 189.311 63.0991 189.311 63.0991M193.24 76.7544C190.722 80.6235 190.501 81.675 187.92 85.4423M187.92 85.4423C190.572 87.5891 195.671 91.8603 203.579 86.9466M187.92 85.4423C187.368 86.249 185.814 88.7319 185.276 89.5101M175.883 102.666C177.414 100.509 183.379 92.2569 185.276 89.5101M185.276 89.5101C181.281 86.4187 177.846 77.5444 179.687 73.015" stroke="#E39600" stroke-width="3.08496" stroke-linecap="round" stroke-linejoin="round"/>
</g>
<g class="leaf" id="yellow_leaf_8">
<path id="Vector 1_8" d="M158.583 67.4195C175.616 64.5815 206.086 71.2935 191.7 120.846C170.492 121.664 146.393 105.005 158.583 67.4195Z" fill="#FDC209"/>
<path id="Vector 2_8" d="M181.021 101.791C185.061 108.324 186.539 111.963 186.539 111.963M181.021 101.791C183.869 97.8899 190.75 101.754 190.75 101.754M181.021 101.791C179.741 99.7201 178.718 97.2896 177.24 95.0204M177.24 95.0204C173.905 98.8149 173.311 108.676 173.311 108.676M177.24 95.0204C174.722 91.1512 174.501 90.0998 171.92 86.3325M171.92 86.3325C174.572 84.1857 179.671 79.9144 187.579 84.8282M171.92 86.3325C171.368 85.5258 169.814 83.0429 169.276 82.2647M159.883 69.1091C161.414 71.2654 167.379 79.5179 169.276 82.2647M169.276 82.2647C165.281 85.3561 161.846 94.2303 163.687 98.7598" stroke="#E39600" stroke-width="3.08496" stroke-linecap="round" stroke-linejoin="round"/>
</g>
<g class="leaf" id="yellow_leaf_9">
<path id="Vector 1_9" d="M232.52 109.541C247.13 100.336 265.427 75.0636 221.735 47.6155C205.35 61.1044 198.426 89.5711 232.52 109.541Z" fill="#FDC209"/>
<path id="Vector 2_9" d="M226.428 68.9478C225.102 61.3824 223.787 57.6814 223.787 57.6814M226.428 68.9478C231.149 69.9688 233.719 62.5078 233.719 62.5078M226.428 68.9478C226.849 71.3465 227.7 73.8422 228.106 76.5194M228.106 76.5194C223.091 75.903 216.091 68.9322 216.091 68.9322M228.106 76.5194C228.797 81.084 229.331 82.0166 229.908 86.546M229.908 86.546C233.317 86.3864 239.965 86.1865 242.605 77.2586M229.908 86.546C230.032 87.5158 230.522 90.404 230.638 91.3426M232.368 107.415C232.078 104.786 231.047 94.6554 230.638 91.3426M230.638 91.3426C225.598 91.69 217.132 87.3448 215.496 82.7377" stroke="#E39600" stroke-width="3.08496" stroke-linecap="round" stroke-linejoin="round"/>
</g>
<g class="leaf" id="yellow_leaf_10">
<path id="Vector 1_10" d="M214.52 62.2335C229.13 71.4387 247.427 96.7111 203.735 124.159C187.35 110.67 180.426 82.2036 214.52 62.2335Z" fill="#FDC209"/>
<path id="Vector 2_10" d="M208.428 102.827C207.102 110.392 205.787 114.093 205.787 114.093M208.428 102.827C213.149 101.806 215.719 109.267 215.719 109.267M208.428 102.827C208.849 100.428 209.7 97.9325 210.106 95.2553M210.106 95.2553C205.091 95.8718 198.091 102.842 198.091 102.842M210.106 95.2553C210.797 90.6907 211.331 89.7581 211.908 85.2287M211.908 85.2287C215.317 85.3883 221.965 85.5882 224.605 94.5161M211.908 85.2287C212.032 84.2589 212.522 81.3707 212.638 80.4321M214.368 64.3602C214.078 66.9887 213.047 77.1193 212.638 80.4321M212.638 80.4321C207.598 80.0847 199.132 84.4299 197.496 89.037" stroke="#E39600" stroke-width="3.08496" stroke-linecap="round" stroke-linejoin="round"/>
</g>
<g class="leaf" id="yellow_leaf_11">
<path id="Vector 1_11" d="M266.502 56.5313C251.892 65.7365 233.595 91.0089 277.287 118.457C293.672 104.968 300.596 76.5014 266.502 56.5313Z" fill="#FDC209"/>
<path id="Vector 2_11" d="M272.594 97.1247C273.92 104.69 275.235 108.391 275.235 108.391M272.594 97.1247C267.873 96.1037 265.303 103.565 265.303 103.565M272.594 97.1247C272.173 94.726 271.322 92.2303 270.916 89.5531M270.916 89.5531C275.931 90.1695 282.931 97.1403 282.931 97.1403M270.916 89.5531C270.225 84.9885 269.691 84.0559 269.114 79.5265M269.114 79.5265C265.705 79.6861 259.057 79.886 256.417 88.8139M269.114 79.5265C268.99 78.5567 268.5 75.6685 268.384 74.7299M266.654 58.658C266.944 61.2865 267.975 71.4171 268.384 74.7299M268.384 74.7299C273.424 74.3825 281.89 78.7277 283.526 83.3348" stroke="#E39600" stroke-width="3.08496" stroke-linecap="round" stroke-linejoin="round"/>
</g>
<g class="leaf" id="yellow_leaf_12">
<path id="Vector 1_12" d="M263.116 51.6185C277.726 60.8237 296.023 86.0961 252.331 113.544C235.946 100.055 229.022 71.5886 263.116 51.6185Z" fill="#FDC209"/>
<path id="Vector 2_12" d="M257.024 92.2119C255.697 99.7773 254.382 103.478 254.382 103.478M257.024 92.2119C261.745 91.1909 264.315 98.6519 264.315 98.6519M257.024 92.2119C257.444 89.8132 258.296 87.3175 258.701 84.6403M258.701 84.6403C253.687 85.2568 246.687 92.2275 246.687 92.2275M258.701 84.6403C259.393 80.0757 259.926 79.1432 260.504 74.6137M260.504 74.6137C263.912 74.7734 270.561 74.9732 273.201 83.9012M260.504 74.6137C260.628 73.6439 261.117 70.7557 261.234 69.8171M262.964 53.7452C262.674 56.3737 261.643 66.5043 261.234 69.8171M261.234 69.8171C256.194 69.4697 247.728 73.8149 246.091 78.422" stroke="#E39600" stroke-width="3.08496" stroke-linecap="round" stroke-linejoin="round"/>
</g>
<g class="leaf" id="yellow_leaf_13">
<path id="Vector 1_13" d="M227.719 100.808C244.754 103.634 275.22 96.9019 260.8 47.3593C239.592 46.555 215.505 63.2307 227.719 100.808Z" fill="#FDC209"/>
<path id="Vector 2_13" d="M250.135 66.4208C254.17 59.8852 255.646 56.2454 255.646 56.2454M250.135 66.4208C252.985 70.3204 259.863 66.4517 259.863 66.4517M250.135 66.4208C248.856 68.493 247.834 70.9241 246.358 73.1943M246.358 73.1943C243.02 69.402 242.42 59.5416 242.42 59.5416M246.358 73.1943C243.842 77.0651 243.622 78.1167 241.044 81.8858M241.044 81.8858C243.698 84.0308 248.8 88.2986 256.704 83.3796M241.044 81.8858C240.492 82.6928 238.94 85.1768 238.403 85.9553M229.018 99.1171C230.548 96.9599 236.508 88.7034 238.403 85.9553M238.403 85.9553C234.405 82.8666 230.965 73.9946 232.802 69.464" stroke="#E39600" stroke-width="3.08496" stroke-linecap="round" stroke-linejoin="round"/>
</g>
<g class="leaf" id="yellow_leaf_14">
<path id="Vector 1_14" d="M220.632 63.7053C237.667 60.8787 268.132 67.6111 253.713 117.154C232.505 117.958 208.417 101.282 220.632 63.7053Z" fill="#FDC209"/>
<path id="Vector 2_14" d="M243.048 98.0922C247.083 104.628 248.559 108.268 248.559 108.268M243.048 98.0922C245.898 94.1925 252.776 98.0613 252.776 98.0613M243.048 98.0922C241.768 96.02 240.747 93.5889 239.271 91.3186M239.271 91.3186C235.933 95.1109 235.332 104.971 235.332 104.971M239.271 91.3186C236.755 87.4478 236.535 86.3962 233.957 82.6271M233.957 82.6271C236.61 80.4821 241.712 76.2143 249.617 81.1333M233.957 82.6271C233.405 81.8201 231.852 79.3362 231.315 78.5576M221.931 65.3958C223.461 67.5531 229.421 75.8095 231.315 78.5576M231.315 78.5576C227.318 81.6463 223.877 90.5183 225.715 95.049" stroke="#E39600" stroke-width="3.08496" stroke-linecap="round" stroke-linejoin="round"/>
</g>
<g id="nav_down">
<rect class="buttonLeaf" x="63" y="44" width="223" height="80" fill="#C36030"/>
<path id="TIMER" d="M141.949 75.875L135.749 76.1L136.774 94L134.724 94.1L133.699 76.2L128.224 76.4L128.149 74.35L141.874 73.825L141.949 75.875ZM149.489 74L149.214 93.975L147.164 93.9L147.439 73.975L149.489 74ZM180.19 94.275L178.065 94.35L177.665 78.275L168.715 93.325L167.565 93.475L159.09 78.575L159.49 94.25L157.415 94.35L156.915 74.25L159.065 74.025L168.34 90.075L177.765 74.2L179.69 74.1L180.19 94.275ZM199.818 93.5L187.993 94.175L186.893 74.725L199.518 74.225L199.593 76.275L189.068 76.7L189.443 83.5L198.768 83.375L198.818 85.425L189.568 85.55L189.918 91.975L199.718 91.45L199.818 93.5ZM220.191 93.25L218.341 94.45L211.916 86.175C210.641 86.175 209.191 86.125 208.191 86.075L208.491 94.1L206.441 94.15L205.691 74.075C207.916 74 210.341 73.925 212.766 73.925C217.591 73.925 219.591 76.675 219.591 80.375C219.591 83.925 217.466 85.675 214.466 86.075L220.191 93.25ZM217.416 80.375C217.416 77.75 215.791 75.925 212.766 75.925C211.216 75.925 209.191 75.975 207.816 76.025L208.116 84.325C209.491 84.4 211.291 84.45 212.966 84.45C215.766 84.45 217.416 83.1 217.416 80.375Z" fill="white"/>
</g>
</g>
</svg>
